<svg xmlns="http://www.w3.org/2000/svg" viewBox="0 0 751.51 501.51"><defs><style>.cls-1{fill:#f2f4f1;}.cls-2{fill:#fff;}.cls-10,.cls-3,.cls-4,.cls-5,.cls-8,.cls-9{fill:none;}.cls-3{stroke:#6539d9;}.cls-3,.cls-4,.cls-5{stroke-linecap:round;stroke-linejoin:round;}.cls-3,.cls-4{stroke-width:5px;}.cls-4{stroke:#4650d5;}.cls-5{stroke:#fdfb46;}.cls-5,.cls-9{stroke-width:4px;}.cls-6{fill:#4650d5;}.cls-7{fill:#fefb4a;}.cls-8,.cls-9{stroke:#fefb4a;stroke-miterlimit:10;}.cls-8{stroke-width:7px;}</style></defs><title>2910195</title><g id="BACKGROUND"><rect class="cls-1" x="125" y="-125" width="500" height="750" transform="translate(625 -125) rotate(90)"/></g><g id="OBJECTS"><rect class="cls-2" width="750" height="500"/><polyline class="cls-3" points="2.77 192.31 28.68 216.11 28.68 187.03 61.6 217.67 61.6 187.03 97.68 220.6"/><polyline class="cls-4" points="660.67 297.49 691.92 326.58 691.92 297.49 724.85 328.14 724.85 297.49 748.57 318.84"/><line class="cls-5" x1="748.57" y1="379.38" x2="597.64" y2="379.38"/><line class="cls-5" x1="516.48" y1="421.42" x2="629.27" y2="421.42"/><line class="cls-5" x1="689.17" y1="423.37" x2="740.31" y2="423.37"/><line class="cls-5" x1="176.62" y1="106.87" x2="2.92" y2="106.87"/><line class="cls-5" x1="109.93" y1="130.14" x2="2.93" y2="130.14"/><line class="cls-5" x1="2.93" y1="148.9" x2="34.55" y2="148.9"/><line class="cls-5" x1="25.87" y1="150.85" x2="77.01" y2="150.85"/><path class="cls-6" d="M567.36.17c0,31.82,27.72,57.62,61.91,57.62S691.19,32,691.19.17M678.4.17c0,25.25-22,45.72-49.13,45.72S580.15,25.42,580.15.17"/><path class="cls-4" d="M497.24,3.17C497.24,71,556.35,126,629.27,126,682.29,126,728,97,749,55"/><path class="cls-7" d="M2.76,453.29c34.2,0,61.92-25.8,61.92-57.62S37,338.06,2.76,338.06m0,11.9c27.14,0,49.13,20.46,49.13,45.71s-22,45.72-49.13,45.72"/><path class="cls-8" d="M114.49,494.8c37.31-21.71,62.13-60.28,62.13-104.25,0-67.86-59.12-122.86-132-122.86a140.94,140.94,0,0,0-41.67,6.24"/><path class="cls-6" d="M678.79,228.47"/><path class="cls-6" d="M659.6,246.33"/><path class="cls-6" d="M640.41,228.47"/><path class="cls-4" d="M37.79,3.17c0,31.82,27.72,57.62,61.92,57.62S161.62,35,161.62,3.17m-12.78,0c0,25.25-22,45.72-49.13,45.72S50.58,28.42,50.58,3.17"/><path class="cls-9" d="M301.13,10.65c-10.78,19.48-13.77,44.56-33.29,56.81-17.71,11.12-43.59,5.75-58-8.9S191.15,22.38,194.27,2.71"/><path class="cls-9" d="M742.28,129.94c-17,6.39-31.95,16.54-48.19,24.41s-34.85,13.53-52.72,9.88-33.82-19.3-31.38-36.18c2-13.51,14.62-24.91,13.48-38.5-1.22-14.58-18.6-24-34.31-23.71S559,73.41,544.71,79.49s-30.36,11.23-45.49,7.24c-16.11-4.26-27.27-18-34.39-32.1s-11.47-29.48-20.36-42.69"/><path class="cls-5" d="M224.78,522.39"/><path class="cls-5" d="M390.22,494.33c1.81-10.3,5.35-21.51-.11-30.62-5.22-8.7-17.18-12.12-27.85-11.31s-20.67,4.92-30.92,7.81-21.65,4.5-31.42.43c-11.5-4.8-18.06-16.28-28.52-22.83-13.67-8.57-33.13-7.13-46.3,2.09s-20,25.11-19.25,40.43a53.48,53.48,0,0,0,2.82,14.46"/><path class="cls-5" d="M399.62,522.53"/><path class="cls-5" d="M577.14,321a32.64,32.64,0,0,0,25.79,10.63c9.75-.5,19.1-5.55,24.39-13.19"/><path class="cls-5" d="M538.35,303.48A31,31,0,0,1,560,293.73a31.32,31.32,0,0,1,22.31,8.33"/><path class="cls-5" d="M244.6,259.37A31.23,31.23,0,0,1,288.54,258"/><line class="cls-10" x1="2.92" y1="347.93" x2="2.92" y2="273.94"/><line class="cls-10" x1="2.92" y1="357.31" x2="2.92" y2="347.93"/><line class="cls-10" x1="2.92" y1="366.33" x2="2.92" y2="357.31"/><line class="cls-10" x1="2.92" y1="414.77" x2="2.92" y2="366.33"/><line class="cls-10" x1="2.92" y1="423.37" x2="2.92" y2="414.77"/><line class="cls-10" x1="2.92" y1="433.17" x2="2.92" y2="423.37"/><line class="cls-10" x1="2.92" y1="436.27" x2="2.92" y2="433.17"/><polyline class="cls-10" points="114.48 494.79 2.92 494.79 2.92 436.27"/><line class="cls-10" x1="208.67" y1="494.79" x2="114.48" y2="494.79"/><line class="cls-10" x1="749" y1="494.79" x2="208.67" y2="494.79"/><line class="cls-10" x1="749" y1="127.69" x2="749" y2="318.41"/><line class="cls-10" x1="749" y1="55.01" x2="749" y2="127.69"/><line class="cls-10" x1="2.92" y1="130.14" x2="2.92" y2="106.87"/><line class="cls-10" x1="2.92" y1="273.94" x2="2.92" y2="130.14"/><path class="cls-4" d="M187.29-102.88"/><path class="cls-4" d="M714.59,499c0-31.82-27.72-57.62-61.91-57.62s-61.91,25.8-61.91,57.62m12.78,0c0-25.25,22-45.72,49.13-45.72s49.13,20.47,49.13,45.72"/></g></svg>