<?xml version="1.0" encoding="utf-8"?>
<!DOCTYPE svg PUBLIC "-//W3C//DTD SVG 20010904//EN"
"http://www.w3.org/TR/2001/REC-SVG-20010904/DTD/svg10.dtd">
<svg viewBox="0 0 5 5" height="100" width="100" xml:lang="fr"
     xmlns="http://www.w3.org/2000/svg"
     xmlns:xlink="http://www.w3.org/1999/xlink">
                        <rect x="0" y="0" height="1" width="1" fill="#96718A"/>
                    <rect x="4" y="0" height="1" width="1" fill="#96718A"/>
                    <rect x="1" y="0" height="1" width="1" fill="#96718A"/>
                    <rect x="3" y="0" height="1" width="1" fill="#96718A"/>
                    <rect x="2" y="0" height="1" width="1" fill="#4842C0"/>
                                <rect x="0" y="1" height="1" width="1" fill="#4842C0"/>
                    <rect x="4" y="1" height="1" width="1" fill="#4842C0"/>
                    <rect x="1" y="1" height="1" width="1" fill="#4842C0"/>
                    <rect x="3" y="1" height="1" width="1" fill="#4842C0"/>
                    <rect x="2" y="1" height="1" width="1" fill="#96718A"/>
                                <rect x="0" y="2" height="1" width="1" fill="#4842C0"/>
                    <rect x="4" y="2" height="1" width="1" fill="#4842C0"/>
                    <rect x="1" y="2" height="1" width="1" fill="#96718A"/>
                    <rect x="3" y="2" height="1" width="1" fill="#96718A"/>
                    <rect x="2" y="2" height="1" width="1" fill="#4842C0"/>
                                <rect x="0" y="3" height="1" width="1" fill="#96718A"/>
                    <rect x="4" y="3" height="1" width="1" fill="#96718A"/>
                    <rect x="1" y="3" height="1" width="1" fill="#4842C0"/>
                    <rect x="3" y="3" height="1" width="1" fill="#4842C0"/>
                    <rect x="2" y="3" height="1" width="1" fill="#4842C0"/>
                                <rect x="0" y="4" height="1" width="1" fill="#96718A"/>
                    <rect x="4" y="4" height="1" width="1" fill="#96718A"/>
                    <rect x="1" y="4" height="1" width="1" fill="#4842C0"/>
                    <rect x="3" y="4" height="1" width="1" fill="#4842C0"/>
                    <rect x="2" y="4" height="1" width="1" fill="#96718A"/>
            </svg>